<svg width="177" height="16" viewBox="0 0 177 16" fill="none" xmlns="http://www.w3.org/2000/svg">
<g clip-path="url(#clip0_149_86)">
<path d="M42.2631 14.9C39.3819 14.9 36.6567 14.208 34.5923 12.952C32.3678 11.6 31.1448 9.748 31.1448 7.742C31.1448 5.736 32.3699 3.884 34.5923 2.532C36.6588 1.276 39.3819 0.584 42.2631 0.584C45.1442 0.584 47.8694 1.276 49.9338 2.532C52.1583 3.884 53.3814 5.736 53.3814 7.742C53.3814 9.748 52.1563 11.6 49.9338 12.952C47.8674 14.208 45.1442 14.9 42.2631 14.9ZM42.2631 2.682C37.4037 2.682 33.2995 4.998 33.2995 7.74C33.2995 10.482 37.4037 12.798 42.2631 12.798C47.1224 12.798 51.2267 10.482 51.2267 7.74C51.2267 4.998 47.1224 2.682 42.2631 2.682Z" fill="white"/>
<path d="M11.9432 14.928C11.1244 14.928 10.279 14.838 9.49508 14.73L9.4643 14.726C3.44958 13.716 0.699767 11.386 0 10.696L1.52676 9.214C3.3675 11.028 7.13721 12.198 9.81315 12.648C12.6902 13.044 13.1581 12.666 13.4208 12.426C13.4618 12.402 13.5603 12.23 13.5398 12.172C13.3489 11.594 12.2695 10.614 10.4226 9.83C9.58948 9.472 8.62088 9.062 7.65229 8.65C6.7309 8.26 5.81155 7.87 5.01123 7.526C4.62749 7.362 3.28542 6.76 2.14445 5.892C0.71208 4.81 0.0943967 3.688 0.299607 2.56L0.326284 2.45C0.863935 0.660001 3.14793 0.0860009 7.1208 0.744001C10.4206 1.292 13.7983 2.75 16.1583 4.644L14.7957 6.27C12.7128 4.598 9.71055 3.308 6.76373 2.818C5.09537 2.542 3.97287 2.548 3.28336 2.658C2.74571 2.744 2.52819 3.39 2.91193 3.766C3.49883 4.34 4.55977 5.042 5.87107 5.602C6.66933 5.944 7.58868 6.334 8.50597 6.722C9.47866 7.134 10.4514 7.546 11.2825 7.904C11.9268 8.178 15.1938 9.654 15.8545 11.66C16.0721 12.32 16.0002 12.978 15.6452 13.56L15.6083 13.62L15.5631 13.674C14.7813 14.642 13.4043 14.928 11.9432 14.928Z" fill="white"/>
<path d="M32.0046 0.515999H25.126H22.9897H16.1111V2.598H22.9897V14.964H25.126V2.598H32.0046V0.515999Z" fill="white"/>
<path d="M70.937 4.68C70.937 2.332 67.5778 0.555999 63.098 0.515999H57.0874H54.9512V14.964H57.0874V7.572C58.5239 8.366 60.5821 8.846 62.9441 8.846C64.3047 8.846 65.5646 8.686 66.6625 8.398C67.3869 8.4 68.7988 10.414 68.7988 14.108V14.834H70.935V14.108C70.935 11.238 70.1675 8.824 68.965 7.476C70.2003 6.748 70.935 5.776 70.935 4.68H70.937ZM57.0874 4.68V2.598H62.9441C66.7323 2.598 68.8008 3.974 68.8008 4.68C68.8008 5.386 66.7343 6.762 62.9441 6.762C59.1539 6.762 57.0874 5.386 57.0874 4.68Z" fill="white"/>
<path d="M86.0919 0L81.7928 7.362C81.7086 7.482 81.5321 7.716 81.3947 7.85C80.896 8.336 78.8931 8.866 77.5921 7.892C77.4977 7.82 77.2474 7.61 76.9888 7.19L72.7943 0L70.9371 1.03L75.1378 8.23L75.1501 8.25C75.4723 8.774 75.8765 9.232 76.289 9.542C77.2248 10.244 78.3391 10.526 79.4041 10.526C79.5909 10.526 79.7755 10.518 79.9582 10.5L77.3479 14.97L79.2051 16L87.9491 1.03L86.0919 0Z" fill="white"/>
<path d="M154.969 14.928C154.15 14.928 153.304 14.838 152.52 14.73L152.49 14.726C146.475 13.716 143.725 11.386 143.025 10.696L144.552 9.214C146.393 11.028 150.163 12.198 152.839 12.648C155.716 13.044 156.183 12.666 156.446 12.426C156.487 12.402 156.586 12.23 156.565 12.172C156.374 11.594 155.295 10.614 153.448 9.83C152.615 9.472 151.646 9.062 150.678 8.65C149.756 8.26 148.837 7.87 148.037 7.526C147.653 7.362 146.311 6.76 145.17 5.892C143.744 4.808 143.124 3.686 143.331 2.558L143.358 2.448C143.893 0.657999 146.179 0.0839992 150.152 0.739999C153.452 1.288 156.83 2.746 159.19 4.64L157.827 6.266C155.744 4.594 152.742 3.304 149.795 2.814C148.127 2.538 147.004 2.544 146.315 2.654C145.777 2.74 145.56 3.386 145.943 3.762C146.53 4.336 147.591 5.038 148.903 5.598C149.701 5.94 150.62 6.33 151.538 6.718C152.51 7.13 153.483 7.542 154.314 7.9C154.958 8.174 158.225 9.65 158.886 11.656C159.104 12.316 159.032 12.974 158.677 13.556L158.64 13.616L158.595 13.67C157.813 14.638 156.436 14.924 154.975 14.924L154.969 14.928Z" fill="white"/>
<path d="M163.109 12.882V8.716H173.795V6.634H163.109V2.598H175.664V0.515999H163.109H162.042H160.973V14.964H162.042H163.109H177V12.882H163.109Z" fill="white"/>
<path d="M109.712 12.882V8.716H120.395V6.634H109.712V2.598H122.266V0.515999H109.712H108.642H107.573V14.964H108.642H109.712H123.6V12.882H109.712Z" fill="white"/>
<path d="M141.39 4.68C141.39 2.332 138.031 0.555999 133.551 0.515999H127.54H125.404V14.964H127.54V7.572C128.977 8.366 131.035 8.846 133.397 8.846C134.757 8.846 136.017 8.686 137.115 8.398C137.84 8.4 139.252 10.414 139.252 14.108V14.834H141.388V14.108C141.388 11.238 140.62 8.824 139.418 7.476C140.653 6.748 141.388 5.776 141.388 4.68H141.39ZM127.54 4.68V2.598H133.397C137.185 2.598 139.254 3.974 139.254 4.68C139.254 5.386 137.187 6.762 133.397 6.762C129.607 6.762 127.54 5.386 127.54 4.68Z" fill="white"/>
<path d="M97.5693 14.964L97.6042 14.924L97.6596 14.964H98.6117L106.742 1.03L104.885 0L97.715 12.27L90.5798 0L88.7227 1.03L96.8531 14.964H97.5693Z" fill="white"/>
</g>
<defs>
<clipPath id="clip0_149_86">
<rect width="177" height="16" fill="white"/>
</clipPath>
</defs>
</svg>
